<svg version="1.1" id="Layer_1" xmlns="http://www.w3.org/2000/svg" xmlns:xlink="http://www.w3.org/1999/xlink" x="0px" y="0px"
	height="100px" width="100px" viewBox="0 0 1080 1080" enable-background="new 0 0 1080 1080" xml:space="preserve">
<path fill="#FFFFFF" opacity="1.000000" stroke="none" 
	d="
M599.000000,1081.000000 
	C399.356323,1081.000000 200.212631,1081.000000 1.034474,1081.000000 
	C1.034474,721.064514 1.034474,361.129059 1.034474,1.096787 
	C360.893890,1.096787 720.787842,1.096787 1080.840820,1.096787 
	C1080.840820,360.999939 1080.840820,720.999939 1080.840820,1081.000000 
	C920.461914,1081.000000 759.980957,1081.000000 599.000000,1081.000000 
M477.499969,690.884460 
	C550.463562,690.884460 623.427185,690.884460 696.375977,690.884460 
	C696.375977,733.086304 696.375977,774.870850 696.375977,817.194885 
	C666.801147,817.194885 637.443176,817.194885 607.289551,817.194885 
	C624.195923,852.466003 640.743164,886.987915 657.607056,922.170288 
	C656.002380,921.778564 655.085205,921.600220 654.195679,921.330688 
	C641.954834,917.621521 629.697266,913.965210 617.498230,910.122864 
	C615.197937,909.398376 612.848877,908.266357 611.004700,906.739685 
	C576.105652,877.850525 541.302429,848.845459 506.372620,819.993713 
	C504.521362,818.464722 501.728760,817.278564 499.371887,817.274048 
	C426.048126,817.133118 352.724060,817.158203 279.400024,817.170532 
	C277.975861,817.170776 276.551697,817.323975 275.192505,817.402039 
	C275.192505,841.667786 275.192505,865.446228 275.192505,889.520081 
	C452.487549,921.714478 629.590820,953.873962 806.774109,986.048035 
	C806.774109,875.182922 806.774109,764.821899 806.774109,654.525269 
	C629.335632,654.525269 452.278595,654.525269 275.278046,654.525269 
	C275.278046,666.767700 275.278046,678.674622 275.278046,690.884460 
	C342.570465,690.884460 409.535187,690.884460 477.499969,690.884460 
M538.499939,423.200867 
	C627.926392,423.200867 717.352844,423.200867 806.959839,423.200867 
	C806.959839,354.953430 806.959839,287.205048 806.959839,219.145096 
	C629.682007,186.953293 452.561035,154.789948 275.314270,122.603775 
	C275.314270,168.864624 275.314270,214.562805 275.314270,260.728394 
	C415.916962,260.728394 556.153564,260.728394 696.303467,260.728394 
	C696.303467,302.954102 696.303467,344.709991 696.303467,386.898438 
	C555.786377,386.898438 415.567474,386.898438 275.270203,386.898438 
	C275.270203,399.221893 275.270203,411.108582 275.270203,423.200867 
	C362.895050,423.200867 450.197479,423.200867 538.499939,423.200867 
M502.500000,619.131592 
	C598.222107,619.131592 693.944153,619.131592 789.724243,619.131592 
	C789.724243,565.111450 789.724243,511.884827 789.724243,458.527008 
	C618.057373,458.527008 446.725067,458.527008 275.349030,458.527008 
	C275.349030,512.165588 275.349030,565.399170 275.349030,619.131775 
	C350.959198,619.131775 426.229614,619.131775 502.500000,619.131592 
M422.500031,741.163513 
	C404.732513,741.163513 386.964996,741.163513 369.178101,741.163513 
	C369.178101,749.992676 369.178101,758.227478 369.178101,766.616577 
	C413.566559,766.616577 457.636261,766.616577 501.832153,766.616577 
	C501.832153,758.054382 501.832153,749.720947 501.832153,741.163513 
	C475.440430,741.163513 449.470245,741.163513 422.500031,741.163513 
M461.500000,316.896637 
	C430.748413,316.896637 399.996826,316.896637 369.097534,316.896637 
	C369.097534,325.506622 369.097534,333.581360 369.097534,341.852966 
	C413.524384,341.852966 457.719299,341.852966 502.035645,341.852966 
	C502.035645,333.515594 502.035645,325.434265 502.035645,316.896637 
	C488.716461,316.896637 475.608246,316.896637 461.500000,316.896637 
z"/>
<path fill="#1A2F0B" opacity="1.000000" stroke="none" 
	d="
M476.999939,690.884460 
	C409.535187,690.884460 342.570465,690.884460 275.278046,690.884460 
	C275.278046,678.674622 275.278046,666.767700 275.278046,654.525269 
	C452.278595,654.525269 629.335632,654.525269 806.774109,654.525269 
	C806.774109,764.821899 806.774109,875.182922 806.774109,986.048035 
	C629.590820,953.873962 452.487549,921.714478 275.192505,889.520081 
	C275.192505,865.446228 275.192505,841.667786 275.192505,817.402039 
	C276.551697,817.323975 277.975861,817.170776 279.400024,817.170532 
	C352.724060,817.158203 426.048126,817.133118 499.371887,817.274048 
	C501.728760,817.278564 504.521362,818.464722 506.372620,819.993713 
	C541.302429,848.845459 576.105652,877.850525 611.004700,906.739685 
	C612.848877,908.266357 615.197937,909.398376 617.498230,910.122864 
	C629.697266,913.965210 641.954834,917.621521 654.195679,921.330688 
	C655.085205,921.600220 656.002380,921.778564 657.607056,922.170288 
	C640.743164,886.987915 624.195923,852.466003 607.289551,817.194885 
	C637.443176,817.194885 666.801147,817.194885 696.375977,817.194885 
	C696.375977,774.870850 696.375977,733.086304 696.375977,690.884460 
	C623.427185,690.884460 550.463562,690.884460 476.999939,690.884460 
z"/>
<path fill="#192E0A" opacity="1.000000" stroke="none" 
	d="
M537.999878,423.200867 
	C450.197479,423.200867 362.895050,423.200867 275.270203,423.200867 
	C275.270203,411.108582 275.270203,399.221893 275.270203,386.898438 
	C415.567474,386.898438 555.786377,386.898438 696.303467,386.898438 
	C696.303467,344.709991 696.303467,302.954102 696.303467,260.728394 
	C556.153564,260.728394 415.916962,260.728394 275.314270,260.728394 
	C275.314270,214.562805 275.314270,168.864624 275.314270,122.603775 
	C452.561035,154.789948 629.682007,186.953293 806.959839,219.145096 
	C806.959839,287.205048 806.959839,354.953430 806.959839,423.200867 
	C717.352844,423.200867 627.926392,423.200867 537.999878,423.200867 
z"/>
<path fill="#94AAAD" opacity="1.000000" stroke="none" 
	d="
M502.000000,619.131714 
	C426.229614,619.131775 350.959198,619.131775 275.349030,619.131775 
	C275.349030,565.399170 275.349030,512.165588 275.349030,458.527008 
	C446.725067,458.527008 618.057373,458.527008 789.724243,458.527008 
	C789.724243,511.884827 789.724243,565.111450 789.724243,619.131592 
	C693.944153,619.131592 598.222107,619.131592 502.000000,619.131714 
M406.500000,526.226257 
	C394.103394,526.226257 381.706818,526.226257 369.474579,526.226257 
	C369.474579,535.013672 369.474579,542.905029 369.474579,550.700989 
	C413.776489,550.700989 457.644501,550.700989 501.641052,550.700989 
	C501.641052,542.461243 501.641052,534.582458 501.641052,526.226685 
	C470.021027,526.226685 438.760498,526.226685 406.500000,526.226257 
z"/>
<path fill="#1D320E" opacity="1.000000" stroke="none" 
	d="
M423.000061,741.163513 
	C449.470245,741.163513 475.440430,741.163513 501.832153,741.163513 
	C501.832153,749.720947 501.832153,758.054382 501.832153,766.616577 
	C457.636261,766.616577 413.566559,766.616577 369.178101,766.616577 
	C369.178101,758.227478 369.178101,749.992676 369.178101,741.163513 
	C386.964996,741.163513 404.732513,741.163513 423.000061,741.163513 
z"/>
<path fill="#1A2E0A" opacity="1.000000" stroke="none" 
	d="
M462.000000,316.896637 
	C475.608246,316.896637 488.716461,316.896637 502.035645,316.896637 
	C502.035645,325.434265 502.035645,333.515594 502.035645,341.852966 
	C457.719299,341.852966 413.524384,341.852966 369.097534,341.852966 
	C369.097534,333.581360 369.097534,325.506622 369.097534,316.896637 
	C399.996826,316.896637 430.748413,316.896637 462.000000,316.896637 
z"/>
<path fill="#FDFDFD" opacity="1.000000" stroke="none" 
	d="
M407.000000,526.226440 
	C438.760498,526.226685 470.021027,526.226685 501.641052,526.226685 
	C501.641052,534.582458 501.641052,542.461243 501.641052,550.700989 
	C457.644501,550.700989 413.776489,550.700989 369.474579,550.700989 
	C369.474579,542.905029 369.474579,535.013672 369.474579,526.226257 
	C381.706818,526.226257 394.103394,526.226257 407.000000,526.226440 
z"/>
</svg>